<?xml version="1.0" encoding="UTF-8" standalone="no"?>
<!DOCTYPE svg PUBLIC "-//W3C//DTD SVG 1.1//EN"
 "http://www.w3.org/Graphics/SVG/1.1/DTD/svg11.dtd">
<!-- Generated by graphviz version 10.0.1 (20240210.2158)
 -->
<!-- Title: G Pages: 1 -->
<svg width="339pt" height="260pt" viewBox="0.00 0.00 339.15 260.00" xmlns="http://www.w3.org/2000/svg">
<g id="graph0" class="graph" transform="scale(1 1) rotate(0) translate(4 256)">
<title>G</title>
<polygon fill="white" stroke="none" points="-4,4 -4,-256 335.15,-256 335.15,4 -4,4"/>
<!-- :core:domain -->
<g id="node1" class="node">
<title>:core:domain</title>
<ellipse fill="none" stroke="black" cx="271.1" cy="-234" rx="60.05" ry="18"/>
<text text-anchor="middle" x="271.1" y="-228.95" font-family="Times,serif" font-size="14.00">:core:domain</text>
</g>
<!-- :core:data -->
<g id="node2" class="node">
<title>:core:data</title>
<ellipse fill="none" stroke="black" cx="234.1" cy="-162" rx="47.26" ry="18"/>
<text text-anchor="middle" x="234.1" y="-156.95" font-family="Times,serif" font-size="14.00">:core:data</text>
</g>
<!-- :core:domain&#45;&gt;:core:data -->
<g id="edge1" class="edge">
<title>:core:domain&#45;&gt;:core:data</title>
<path fill="none" stroke="red" stroke-width="2" d="M262.14,-216.05C257.96,-208.14 252.88,-198.54 248.21,-189.69"/>
<polygon fill="red" stroke="red" stroke-width="2" points="252.16,-189.67 244.39,-182.47 245.97,-192.94 252.16,-189.67"/>
</g>
<!-- :core:model -->
<g id="node3" class="node">
<title>:core:model</title>
<ellipse fill="none" stroke="black" cx="252.1" cy="-18" rx="55.45" ry="18"/>
<text text-anchor="middle" x="252.1" y="-12.95" font-family="Times,serif" font-size="14.00">:core:model</text>
</g>
<!-- :core:domain&#45;&gt;:core:model -->
<g id="edge2" class="edge">
<title>:core:domain&#45;&gt;:core:model</title>
<path fill="none" stroke="black" d="M278.61,-216.04C290.75,-186.13 311.65,-122.4 294.1,-72 290.53,-61.74 284.05,-51.97 277.23,-43.68"/>
<polygon fill="black" stroke="black" points="280.08,-41.62 270.83,-36.45 274.84,-46.26 280.08,-41.62"/>
</g>
<!-- :core:data&#45;&gt;:core:model -->
<g id="edge3" class="edge">
<title>:core:data&#45;&gt;:core:model</title>
<path fill="none" stroke="black" d="M252.6,-145.38C262.52,-135.75 273.77,-122.5 279.1,-108 286.65,-87.44 278.62,-63.69 269.4,-45.89"/>
<polygon fill="black" stroke="black" points="272.49,-44.24 264.53,-37.24 266.39,-47.67 272.49,-44.24"/>
</g>
<!-- :core:database -->
<g id="node4" class="node">
<title>:core:database</title>
<ellipse fill="none" stroke="black" cx="206.1" cy="-90" rx="63.63" ry="18"/>
<text text-anchor="middle" x="206.1" y="-84.95" font-family="Times,serif" font-size="14.00">:core:database</text>
</g>
<!-- :core:data&#45;&gt;:core:database -->
<g id="edge4" class="edge">
<title>:core:data&#45;&gt;:core:database</title>
<path fill="none" stroke="red" stroke-width="2" d="M227.18,-143.7C224.16,-136.15 220.55,-127.12 217.17,-118.68"/>
<polygon fill="red" stroke="red" stroke-width="2" points="221.03,-118.9 214.07,-110.91 214.53,-121.5 221.03,-118.9"/>
</g>
<!-- :core:network -->
<g id="node5" class="node">
<title>:core:network</title>
<ellipse fill="none" stroke="black" cx="62.1" cy="-90" rx="62.1" ry="18"/>
<text text-anchor="middle" x="62.1" y="-84.95" font-family="Times,serif" font-size="14.00">:core:network</text>
</g>
<!-- :core:data&#45;&gt;:core:network -->
<g id="edge5" class="edge">
<title>:core:data&#45;&gt;:core:network</title>
<path fill="none" stroke="black" d="M202.55,-148.16C175.95,-137.33 137.54,-121.7 107.6,-109.52"/>
<polygon fill="black" stroke="black" points="108.98,-106.3 98.4,-105.77 106.34,-112.78 108.98,-106.3"/>
</g>
<!-- :core:database&#45;&gt;:core:model -->
<g id="edge6" class="edge">
<title>:core:database&#45;&gt;:core:model</title>
<path fill="none" stroke="red" stroke-width="2" d="M217.23,-72.05C222.49,-64.06 228.88,-54.33 234.75,-45.4"/>
<polygon fill="red" stroke="red" stroke-width="2" points="236.84,-48.6 239.4,-38.32 230.99,-44.75 236.84,-48.6"/>
</g>
<!-- :core:network&#45;&gt;:core:model -->
<g id="edge8" class="edge">
<title>:core:network&#45;&gt;:core:model</title>
<path fill="none" stroke="black" d="M99.18,-75.34C129.65,-64.11 172.97,-48.15 205.72,-36.09"/>
<polygon fill="black" stroke="black" points="206.8,-39.42 214.97,-32.68 204.38,-32.85 206.8,-39.42"/>
</g>
<!-- :core:test -->
<g id="node6" class="node">
<title>:core:test</title>
<ellipse fill="none" stroke="black" cx="62.1" cy="-18" rx="44.7" ry="18"/>
<text text-anchor="middle" x="62.1" y="-12.95" font-family="Times,serif" font-size="14.00">:core:test</text>
</g>
<!-- :core:network&#45;&gt;:core:test -->
<g id="edge7" class="edge">
<title>:core:network&#45;&gt;:core:test</title>
<path fill="none" stroke="black" d="M62.1,-71.7C62.1,-64.41 62.1,-55.73 62.1,-47.54"/>
<polygon fill="black" stroke="black" points="65.6,-47.62 62.1,-37.62 58.6,-47.62 65.6,-47.62"/>
</g>
</g>
</svg>
