<?xml version="1.0" encoding="UTF-8" standalone="no"?>
<!DOCTYPE svg PUBLIC "-//W3C//DTD SVG 1.1//EN"
 "http://www.w3.org/Graphics/SVG/1.1/DTD/svg11.dtd">
<!-- Generated by graphviz version 10.0.1 (20240210.2158)
 -->
<!-- Title: G Pages: 1 -->
<svg width="381pt" height="404pt" viewBox="0.00 0.00 381.03 404.00" xmlns="http://www.w3.org/2000/svg">
<g id="graph0" class="graph" transform="scale(1 1) rotate(0) translate(4 400)">
<title>G</title>
<polygon fill="white" stroke="none" points="-4,4 -4,-400 377.03,-400 377.03,4 -4,4"/>
<!-- :app -->
<g id="node1" class="node">
<title>:app</title>
<ellipse fill="none" stroke="black" cx="286.1" cy="-378" rx="27" ry="18"/>
<text text-anchor="middle" x="286.1" y="-372.95" font-family="Times,serif" font-size="14.00">:app</text>
</g>
<!-- :feature:dashboard -->
<g id="node2" class="node">
<title>:feature:dashboard</title>
<ellipse fill="none" stroke="black" cx="286.1" cy="-306" rx="79.5" ry="18"/>
<text text-anchor="middle" x="286.1" y="-300.95" font-family="Times,serif" font-size="14.00">:feature:dashboard</text>
</g>
<!-- :app&#45;&gt;:feature:dashboard -->
<g id="edge1" class="edge">
<title>:app&#45;&gt;:feature:dashboard</title>
<path fill="none" stroke="red" stroke-width="2" d="M286.1,-359.7C286.1,-352.41 286.1,-343.73 286.1,-335.54"/>
<polygon fill="red" stroke="red" stroke-width="2" points="289.6,-337.13 286.1,-327.13 282.6,-337.13 289.6,-337.13"/>
</g>
<!-- :core:model -->
<g id="node3" class="node">
<title>:core:model</title>
<ellipse fill="none" stroke="black" cx="244.1" cy="-18" rx="55.45" ry="18"/>
<text text-anchor="middle" x="244.1" y="-12.95" font-family="Times,serif" font-size="14.00">:core:model</text>
</g>
<!-- :feature:dashboard&#45;&gt;:core:model -->
<g id="edge2" class="edge">
<title>:feature:dashboard&#45;&gt;:core:model</title>
<path fill="none" stroke="black" d="M318.13,-289.11C332.2,-280.29 347.29,-267.85 355.1,-252 375.5,-210.61 388.61,-151.79 335.1,-72 324.56,-56.28 307.66,-44.61 291.28,-36.28"/>
<polygon fill="black" stroke="black" points="293.11,-33.27 282.57,-32.17 290.12,-39.6 293.11,-33.27"/>
</g>
<!-- :core:data -->
<g id="node4" class="node">
<title>:core:data</title>
<ellipse fill="none" stroke="black" cx="198.1" cy="-162" rx="47.26" ry="18"/>
<text text-anchor="middle" x="198.1" y="-156.95" font-family="Times,serif" font-size="14.00">:core:data</text>
</g>
<!-- :feature:dashboard&#45;&gt;:core:data -->
<g id="edge3" class="edge">
<title>:feature:dashboard&#45;&gt;:core:data</title>
<path fill="none" stroke="black" d="M256.56,-289C242.54,-279.93 226.77,-267.33 217.1,-252 205.68,-233.92 201.03,-210.08 199.18,-191.62"/>
<polygon fill="black" stroke="black" points="202.68,-191.6 198.44,-181.9 195.7,-192.13 202.68,-191.6"/>
</g>
<!-- :core:domain -->
<g id="node5" class="node">
<title>:core:domain</title>
<ellipse fill="none" stroke="black" cx="286.1" cy="-234" rx="60.05" ry="18"/>
<text text-anchor="middle" x="286.1" y="-228.95" font-family="Times,serif" font-size="14.00">:core:domain</text>
</g>
<!-- :feature:dashboard&#45;&gt;:core:domain -->
<g id="edge4" class="edge">
<title>:feature:dashboard&#45;&gt;:core:domain</title>
<path fill="none" stroke="red" stroke-width="2" d="M286.1,-287.7C286.1,-280.41 286.1,-271.73 286.1,-263.54"/>
<polygon fill="red" stroke="red" stroke-width="2" points="289.6,-265.13 286.1,-255.13 282.6,-265.13 289.6,-265.13"/>
</g>
<!-- :core:data&#45;&gt;:core:model -->
<g id="edge5" class="edge">
<title>:core:data&#45;&gt;:core:model</title>
<path fill="none" stroke="black" d="M185.7,-144.26C173.71,-125.85 159,-95.74 171.1,-72 178.07,-58.32 190.41,-47.35 202.97,-39.02"/>
<polygon fill="black" stroke="black" points="204.55,-42.15 211.25,-33.95 200.9,-36.18 204.55,-42.15"/>
</g>
<!-- :core:database -->
<g id="node6" class="node">
<title>:core:database</title>
<ellipse fill="none" stroke="black" cx="244.1" cy="-90" rx="63.63" ry="18"/>
<text text-anchor="middle" x="244.1" y="-84.95" font-family="Times,serif" font-size="14.00">:core:database</text>
</g>
<!-- :core:data&#45;&gt;:core:database -->
<g id="edge6" class="edge">
<title>:core:data&#45;&gt;:core:database</title>
<path fill="none" stroke="red" stroke-width="2" d="M209.23,-144.05C214.49,-136.06 220.88,-126.33 226.75,-117.4"/>
<polygon fill="red" stroke="red" stroke-width="2" points="228.84,-120.6 231.4,-110.32 222.99,-116.75 228.84,-120.6"/>
</g>
<!-- :core:network -->
<g id="node7" class="node">
<title>:core:network</title>
<ellipse fill="none" stroke="black" cx="62.1" cy="-90" rx="62.1" ry="18"/>
<text text-anchor="middle" x="62.1" y="-84.95" font-family="Times,serif" font-size="14.00">:core:network</text>
</g>
<!-- :core:data&#45;&gt;:core:network -->
<g id="edge7" class="edge">
<title>:core:data&#45;&gt;:core:network</title>
<path fill="none" stroke="black" d="M170.9,-147C151.1,-136.81 123.96,-122.84 101.74,-111.4"/>
<polygon fill="black" stroke="black" points="103.44,-108.34 92.95,-106.88 100.24,-114.57 103.44,-108.34"/>
</g>
<!-- :core:domain&#45;&gt;:core:model -->
<g id="edge12" class="edge">
<title>:core:domain&#45;&gt;:core:model</title>
<path fill="none" stroke="black" d="M296.12,-216.02C312.69,-185.53 341.66,-120.18 317.1,-72 310.13,-58.32 297.79,-47.35 285.23,-39.02"/>
<polygon fill="black" stroke="black" points="287.3,-36.18 276.94,-33.95 283.64,-42.15 287.3,-36.18"/>
</g>
<!-- :core:domain&#45;&gt;:core:data -->
<g id="edge11" class="edge">
<title>:core:domain&#45;&gt;:core:data</title>
<path fill="none" stroke="red" stroke-width="2" d="M265.69,-216.76C254.09,-207.53 239.38,-195.83 226.64,-185.7"/>
<polygon fill="red" stroke="red" stroke-width="2" points="230.17,-184.04 220.16,-180.55 225.81,-189.51 230.17,-184.04"/>
</g>
<!-- :core:database&#45;&gt;:core:model -->
<g id="edge8" class="edge">
<title>:core:database&#45;&gt;:core:model</title>
<path fill="none" stroke="red" stroke-width="2" d="M244.1,-71.7C244.1,-64.41 244.1,-55.73 244.1,-47.54"/>
<polygon fill="red" stroke="red" stroke-width="2" points="247.6,-49.13 244.1,-39.13 240.6,-49.13 247.6,-49.13"/>
</g>
<!-- :core:network&#45;&gt;:core:model -->
<g id="edge10" class="edge">
<title>:core:network&#45;&gt;:core:model</title>
<path fill="none" stroke="black" d="M98.49,-75C127.35,-63.9 167.84,-48.33 198.8,-36.42"/>
<polygon fill="black" stroke="black" points="199.82,-39.78 207.9,-32.92 197.31,-33.25 199.82,-39.78"/>
</g>
<!-- :core:test -->
<g id="node8" class="node">
<title>:core:test</title>
<ellipse fill="none" stroke="black" cx="62.1" cy="-18" rx="44.7" ry="18"/>
<text text-anchor="middle" x="62.1" y="-12.95" font-family="Times,serif" font-size="14.00">:core:test</text>
</g>
<!-- :core:network&#45;&gt;:core:test -->
<g id="edge9" class="edge">
<title>:core:network&#45;&gt;:core:test</title>
<path fill="none" stroke="black" d="M62.1,-71.7C62.1,-64.41 62.1,-55.73 62.1,-47.54"/>
<polygon fill="black" stroke="black" points="65.6,-47.62 62.1,-37.62 58.6,-47.62 65.6,-47.62"/>
</g>
</g>
</svg>
