<?xml version="1.0" encoding="UTF-8" standalone="no"?>
<!DOCTYPE svg PUBLIC "-//W3C//DTD SVG 1.1//EN"
 "http://www.w3.org/Graphics/SVG/1.1/DTD/svg11.dtd">
<!-- Generated by graphviz version 10.0.1 (20240210.2158)
 -->
<!-- Title: G Pages: 1 -->
<svg width="226pt" height="116pt" viewBox="0.00 0.00 226.14 116.00" xmlns="http://www.w3.org/2000/svg">
<g id="graph0" class="graph" transform="scale(1 1) rotate(0) translate(4 112)">
<title>G</title>
<polygon fill="white" stroke="none" points="-4,4 -4,-112 222.14,-112 222.14,4 -4,4"/>
<!-- :core:network -->
<g id="node1" class="node">
<title>:core:network</title>
<ellipse fill="none" stroke="black" cx="103.7" cy="-90" rx="62.1" ry="18"/>
<text text-anchor="middle" x="103.7" y="-84.95" font-family="Times,serif" font-size="14.00">:core:network</text>
</g>
<!-- :core:test -->
<g id="node2" class="node">
<title>:core:test</title>
<ellipse fill="none" stroke="black" cx="44.7" cy="-18" rx="44.7" ry="18"/>
<text text-anchor="middle" x="44.7" y="-12.95" font-family="Times,serif" font-size="14.00">:core:test</text>
</g>
<!-- :core:network&#45;&gt;:core:test -->
<g id="edge1" class="edge">
<title>:core:network&#45;&gt;:core:test</title>
<path fill="none" stroke="red" stroke-width="2" d="M89.42,-72.05C82.28,-63.59 73.51,-53.19 65.64,-43.84"/>
<polygon fill="red" stroke="red" stroke-width="2" points="69.51,-43.01 60.39,-37.62 64.16,-47.52 69.51,-43.01"/>
</g>
<!-- :core:model -->
<g id="node3" class="node">
<title>:core:model</title>
<ellipse fill="none" stroke="black" cx="162.7" cy="-18" rx="55.45" ry="18"/>
<text text-anchor="middle" x="162.7" y="-12.95" font-family="Times,serif" font-size="14.00">:core:model</text>
</g>
<!-- :core:network&#45;&gt;:core:model -->
<g id="edge2" class="edge">
<title>:core:network&#45;&gt;:core:model</title>
<path fill="none" stroke="black" d="M117.98,-72.05C124.94,-63.8 133.45,-53.7 141.17,-44.54"/>
<polygon fill="black" stroke="black" points="143.8,-46.85 147.57,-36.95 138.45,-42.34 143.8,-46.85"/>
</g>
</g>
</svg>
