<?xml version="1.0" encoding="UTF-8" standalone="no"?>
<!DOCTYPE svg PUBLIC "-//W3C//DTD SVG 1.1//EN"
 "http://www.w3.org/Graphics/SVG/1.1/DTD/svg11.dtd">
<!-- Generated by graphviz version 10.0.1 (20240210.2158)
 -->
<!-- Title: G Pages: 1 -->
<svg width="293pt" height="188pt" viewBox="0.00 0.00 292.55 188.00" xmlns="http://www.w3.org/2000/svg">
<g id="graph0" class="graph" transform="scale(1 1) rotate(0) translate(4 184)">
<title>G</title>
<polygon fill="white" stroke="none" points="-4,4 -4,-184 288.55,-184 288.55,4 -4,4"/>
<!-- :core:data -->
<g id="node1" class="node">
<title>:core:data</title>
<ellipse fill="none" stroke="black" cx="78.45" cy="-162" rx="47.26" ry="18"/>
<text text-anchor="middle" x="78.45" y="-156.95" font-family="Times,serif" font-size="14.00">:core:data</text>
</g>
<!-- :core:model -->
<g id="node2" class="node">
<title>:core:model</title>
<ellipse fill="none" stroke="black" cx="78.45" cy="-18" rx="55.45" ry="18"/>
<text text-anchor="middle" x="78.45" y="-12.95" font-family="Times,serif" font-size="14.00">:core:model</text>
</g>
<!-- :core:data&#45;&gt;:core:model -->
<g id="edge1" class="edge">
<title>:core:data&#45;&gt;:core:model</title>
<path fill="none" stroke="black" d="M48.4,-147.69C32.52,-138.9 14.48,-125.72 5.45,-108 -1.82,-93.75 -1.82,-86.25 5.45,-72 12.42,-58.32 24.76,-47.35 37.32,-39.02"/>
<polygon fill="black" stroke="black" points="38.9,-42.15 45.61,-33.95 35.25,-36.18 38.9,-42.15"/>
</g>
<!-- :core:database -->
<g id="node3" class="node">
<title>:core:database</title>
<ellipse fill="none" stroke="black" cx="78.45" cy="-90" rx="63.63" ry="18"/>
<text text-anchor="middle" x="78.45" y="-84.95" font-family="Times,serif" font-size="14.00">:core:database</text>
</g>
<!-- :core:data&#45;&gt;:core:database -->
<g id="edge2" class="edge">
<title>:core:data&#45;&gt;:core:database</title>
<path fill="none" stroke="red" stroke-width="2" d="M78.45,-143.7C78.45,-136.41 78.45,-127.73 78.45,-119.54"/>
<polygon fill="red" stroke="red" stroke-width="2" points="81.95,-121.13 78.45,-111.13 74.95,-121.13 81.95,-121.13"/>
</g>
<!-- :core:network -->
<g id="node4" class="node">
<title>:core:network</title>
<ellipse fill="none" stroke="black" cx="222.45" cy="-90" rx="62.1" ry="18"/>
<text text-anchor="middle" x="222.45" y="-84.95" font-family="Times,serif" font-size="14.00">:core:network</text>
</g>
<!-- :core:data&#45;&gt;:core:network -->
<g id="edge3" class="edge">
<title>:core:data&#45;&gt;:core:network</title>
<path fill="none" stroke="black" d="M106.9,-147.17C128.18,-136.83 157.58,-122.53 181.4,-110.95"/>
<polygon fill="black" stroke="black" points="182.74,-114.19 190.21,-106.67 179.68,-107.9 182.74,-114.19"/>
</g>
<!-- :core:database&#45;&gt;:core:model -->
<g id="edge4" class="edge">
<title>:core:database&#45;&gt;:core:model</title>
<path fill="none" stroke="red" stroke-width="2" d="M78.45,-71.7C78.45,-64.41 78.45,-55.73 78.45,-47.54"/>
<polygon fill="red" stroke="red" stroke-width="2" points="81.95,-49.13 78.45,-39.13 74.95,-49.13 81.95,-49.13"/>
</g>
<!-- :core:network&#45;&gt;:core:model -->
<g id="edge6" class="edge">
<title>:core:network&#45;&gt;:core:model</title>
<path fill="none" stroke="black" d="M191.56,-73.98C170.2,-63.6 141.59,-49.69 118.49,-38.46"/>
<polygon fill="black" stroke="black" points="120.19,-35.4 109.67,-34.17 117.13,-41.69 120.19,-35.4"/>
</g>
<!-- :core:test -->
<g id="node5" class="node">
<title>:core:test</title>
<ellipse fill="none" stroke="black" cx="222.45" cy="-18" rx="44.7" ry="18"/>
<text text-anchor="middle" x="222.45" y="-12.95" font-family="Times,serif" font-size="14.00">:core:test</text>
</g>
<!-- :core:network&#45;&gt;:core:test -->
<g id="edge5" class="edge">
<title>:core:network&#45;&gt;:core:test</title>
<path fill="none" stroke="black" d="M222.45,-71.7C222.45,-64.41 222.45,-55.73 222.45,-47.54"/>
<polygon fill="black" stroke="black" points="225.95,-47.62 222.45,-37.62 218.95,-47.62 225.95,-47.62"/>
</g>
</g>
</svg>
